<?xml version="1.0" encoding="utf-8"?>
<svg width="800px" height="800px" viewBox="0 0 800 800" version="1.1" xmlns:xlink="http://www.w3.org/1999/xlink" xmlns="http://www.w3.org/2000/svg">
  <defs>
    <linearGradient x1="0.4999814" y1="-1.2487173E-05" x2="0.4999814" y2="1.000006" id="gradient_1">
      <stop offset="1.9180039E-05%" stop-color="#F6F8FF" />
      <stop offset="100%" stop-color="#D9E3FF" />
    </linearGradient>
    <linearGradient x1="0.19743711" y1="0.043589234" x2="0.8025581" y2="0.9564105" id="gradient_2">
      <stop offset="4.7950114E-05%" stop-color="#A9BFFF" />
      <stop offset="100%" stop-color="#7C9CFF" />
    </linearGradient>
    <linearGradient x1="0.18352604" y1="0.02260983" x2="0.8165016" y2="0.9774254" id="gradient_3">
      <stop offset="4.7950114E-05%" stop-color="#A9BFFF" />
      <stop offset="100%" stop-color="#7C9CFF" />
    </linearGradient>
    <linearGradient x1="0.11327946" y1="-0.018329442" x2="0.8867287" y2="1.0183343" id="gradient_4">
      <stop offset="0%" stop-color="#D4E1FF" />
      <stop offset="100%" stop-color="#7798FF" />
    </linearGradient>
    <path d="M0 0L800 0L800 800L0 800L0 0Z" id="path_1" />
    <clipPath id="mask_1">
      <use xlink:href="#path_1" />
    </clipPath>
  </defs>
  <g id="暂无文件">
    <path d="M0 0L800 0L800 800L0 800L0 0Z" id="Background" fill="none" fill-rule="evenodd" stroke="none" />
    <g clip-path="url(#mask_1)">
      <g id="图层_5" transform="translate(68.53192 85.625)">
        <g id="Group">
          <g id="Group">
            <path d="M576.898 88.595C576.898 77.6708 585.754 68.815 596.678 68.815C607.602 68.815 616.458 77.6708 616.458 88.595C616.458 99.5192 607.602 108.375 596.678 108.375C585.754 108.375 576.898 99.5192 576.898 88.595Z" id="Circle" fill="#F3F6FF" fill-rule="evenodd" stroke="none" />
            <path d="M8.77809 540.395C8.77809 529.471 17.6339 520.615 28.5581 520.615C39.4823 520.615 48.3381 529.471 48.3381 540.395C48.3381 551.319 39.4823 560.175 28.5581 560.175C17.6339 560.175 8.77809 551.319 8.77809 540.395Z" id="Circle" fill="#DFE7FF" fill-rule="evenodd" stroke="none" />
            <path d="M149.688 602.395C142.308 602.395 136.308 596.395 136.308 589.015C136.308 581.635 142.308 575.635 149.688 575.635C157.068 575.635 163.068 581.635 163.068 589.015C163.058 596.395 157.058 602.395 149.688 602.395L149.688 602.395ZM149.688 582.065C145.858 582.065 142.738 585.185 142.738 589.015C142.738 592.845 145.858 595.965 149.688 595.965C153.518 595.965 156.638 592.845 156.638 589.015C156.638 585.185 153.518 582.065 149.688 582.065L149.688 582.065Z" id="Shape" fill="#DFE7FF" fill-rule="evenodd" stroke="none" />
            <path d="M528.118 29.255L508.138 29.255L508.138 9.285C508.138 5.625 505.178 2.665 501.518 2.665C497.858 2.665 494.898 5.625 494.898 9.285L494.898 29.265L474.918 29.265C471.258 29.265 468.298 32.225 468.298 35.885C468.298 39.545 471.258 42.505 474.918 42.505L494.898 42.505L494.898 62.485C494.898 66.145 497.858 69.105 501.518 69.105C505.178 69.105 508.138 66.145 508.138 62.485L508.138 42.505L528.118 42.505C531.778 42.505 534.738 39.545 534.738 35.885C534.738 32.225 531.768 29.255 528.118 29.255L528.118 29.255Z" id="Shape" fill="#F3F6FF" stroke="none" />
            <path d="M585.688 606.295L570.848 606.295L570.848 591.455C570.848 588.415 568.378 585.945 565.338 585.945C562.298 585.945 559.828 588.415 559.828 591.455L559.828 606.295L544.988 606.295C541.948 606.295 539.478 608.765 539.478 611.805C539.478 614.845 541.948 617.315 544.988 617.315L559.828 617.315L559.828 632.155C559.828 635.195 562.298 637.665 565.338 637.665C568.378 637.665 570.848 635.195 570.848 632.155L570.848 617.315L585.688 617.315C588.728 617.315 591.198 614.845 591.198 611.805C591.198 608.765 588.738 606.295 585.688 606.295L585.688 606.295Z" id="Shape" fill="#DFE7FF" stroke="none" />
            <path d="M50.6281 44.705C59.3281 53.405 73.4481 53.405 82.1481 44.705L82.1481 44.705C90.8481 36.005 90.8481 21.885 82.1481 13.185L75.4881 6.52499C66.7881 -2.175 52.6681 -2.175 43.9681 6.52499L43.9681 6.52499C35.2681 15.225 35.2681 29.345 43.9681 38.045L50.6281 44.705L50.6281 44.705Z" id="Shape" fill="#F3F6FF" stroke="none" />
            <path d="M165.348 36.645C169.318 40.615 175.758 40.615 179.728 36.645C183.698 32.675 183.698 26.235 179.728 22.265L169.718 12.255C165.748 8.285 159.308 8.285 155.338 12.255C151.368 16.225 151.368 22.665 155.338 26.635L165.348 36.645L165.348 36.645Z" id="Shape" fill="#F3F6FF" stroke="none" />
            <path d="M14.2781 237.365C18.2481 241.335 24.6881 241.335 28.6581 237.365L28.6581 237.365C32.6281 233.395 32.6281 226.955 28.6581 222.985L18.6481 212.975C14.6781 209.005 8.2381 209.005 4.2681 212.975C0.298096 216.945 0.298096 223.385 4.2681 227.355L14.2781 237.365L14.2781 237.365Z" id="Shape" fill="#F3F6FF" stroke="none" />
            <path d="M542.238 544.835C538.268 540.865 531.828 540.865 527.858 544.835C523.888 548.805 523.888 555.245 527.858 559.215L537.868 569.225C541.838 573.195 548.278 573.195 552.248 569.225C556.218 565.255 556.218 558.815 552.248 554.845L542.238 544.835L542.238 544.835Z" id="Shape" fill="#DFE7FF" stroke="none" />
            <path d="M597.088 553.325C597.088 535.227 611.76 520.555 629.858 520.555C647.956 520.555 662.628 535.227 662.628 553.325C662.628 571.423 647.956 586.095 629.858 586.095C611.76 586.095 597.088 571.423 597.088 553.325Z" id="Circle" fill="#DFE7FF" fill-rule="evenodd" stroke="none" />
            <path d="M630.508 401.365L598.998 369.855L579.028 348.585C573.858 343.155 573.788 334.645 578.868 329.125L578.868 329.125C584.418 323.095 593.908 322.985 599.588 328.895L603.628 333.305L612.948 342.625C618.358 348.035 627.238 348.445 632.748 343.135C638.358 337.725 638.428 328.785 632.938 323.295L614.308 304.665C607.428 297.785 602.948 288.845 601.648 279.205C583.428 143.815 467.448 39.415 327.068 39.415C322.278 39.415 317.518 39.545 312.788 39.785C307.678 40.045 302.688 38.175 299.078 34.555L279.938 15.415C271.388 6.86502 257.468 6.23502 248.618 14.475C239.328 23.125 239.138 37.665 248.028 46.565L251.368 49.905L261.778 60.845C268.318 67.765 267.348 78.845 259.698 84.525C253.188 89.355 245.018 87.785 239.508 81.835L218.818 61.375L200.778 43.335C196.948 39.505 190.718 39.055 186.648 42.625C182.188 46.545 182.028 53.335 186.158 57.465L199.298 70.605L207.858 78.845C216.558 87.365 216.748 100.645 208.098 109.205L208.098 109.205C199.508 117.695 185.648 117.585 177.208 108.945L162.468 93.615L127.158 58.305C118.458 49.605 104.338 49.605 95.6381 58.305L95.6381 58.305C86.9381 67.005 86.9381 81.125 95.6381 89.825L121.248 115.515L130.228 123.895C138.718 132.325 138.918 145.985 130.678 154.655L130.678 154.655C121.858 163.945 106.988 163.765 98.3981 154.255L93.4381 148.815L78.0781 133.375C65.4581 120.755 44.8781 119.975 31.9181 132.255C18.4681 144.985 18.2481 166.225 31.2581 179.235L68.5981 216.565L86.3981 234.155C93.1081 240.795 92.8981 251.705 85.9381 258.085L85.9381 258.085C79.3581 264.115 69.1781 263.835 62.9481 257.455L57.5981 251.905L49.4881 243.795C45.5181 239.825 39.0781 239.825 35.1081 243.795L35.1081 243.795C30.0481 247.995 31.4181 254.485 35.1681 258.235L52.9581 276.025L89.9481 312.115C96.3281 318.335 96.3581 328.585 90.0281 334.845L90.0281 334.845C83.8481 340.955 73.9081 340.995 67.6881 334.925L50.0181 317.685L24.0581 291.725C18.6481 286.315 9.76807 285.905 4.25807 291.215C-1.35193 296.625 -1.42193 305.565 4.06807 311.055L47.9581 354.945C51.5081 358.495 53.8681 363.055 54.7981 367.995C78.2881 492.925 185.598 588.265 316.098 593.355C323.298 593.635 330.158 596.515 335.378 601.495C343.838 609.575 355.648 620.835 355.648 620.835C364.198 629.385 378.118 630.015 386.968 621.775C396.258 613.125 396.448 598.585 387.558 589.685L385.298 587.425L375.468 577.205C369.878 571.145 370.438 561.655 376.698 556.285L376.698 556.285C382.628 551.205 391.508 551.705 396.828 557.415L417.048 578.635L439.068 600.655C447.968 609.545 462.508 609.355 471.158 600.075C479.398 591.235 478.758 577.305 470.218 568.755L460.718 559.255C460.718 559.255 457.698 556.145 453.828 552.165C444.798 542.885 445.118 528.005 454.528 519.115L455.008 518.665C464.028 510.145 478.158 510.235 487.078 518.865L500.898 532.245L506.808 538.155C510.638 541.985 516.878 542.435 520.938 538.865C525.398 534.945 525.558 528.155 521.428 524.025L516.278 518.875C515.338 519.315 495.448 498.835 483.648 486.555C478.898 481.615 479.088 473.765 484.058 469.055L484.058 469.055C489.008 464.365 496.828 464.585 501.508 469.535L532.538 502.355L546.688 516.505C559.308 529.125 579.878 529.905 592.848 517.635C606.298 504.905 606.518 483.665 593.508 470.655L570.938 448.085L559.538 435.655C553.968 429.635 554.218 420.275 560.098 414.555L560.098 414.555C566.208 408.615 576.018 408.915 581.768 415.205L584.688 418.605L599.328 433.255C608.228 442.155 622.768 441.955 631.418 432.675C639.688 423.835 639.048 409.915 630.508 401.365L630.508 401.365Z" id="Shape" fill="url(#gradient_1)" stroke="none" />
            <path d="M358.308 122.245L343.468 122.245L343.468 107.405C343.468 104.365 340.998 101.895 337.958 101.895C334.918 101.895 332.448 104.365 332.448 107.405L332.448 122.245L317.608 122.245C314.568 122.245 312.098 124.715 312.098 127.755C312.098 130.795 314.568 133.265 317.608 133.265L332.448 133.265L332.448 148.105C332.448 151.145 334.918 153.615 337.958 153.615C340.998 153.615 343.468 151.145 343.468 148.105L343.468 133.265L358.308 133.265C361.348 133.265 363.818 130.795 363.818 127.755C363.818 124.715 361.348 122.245 358.308 122.245L358.308 122.245Z" id="Shape" fill="#FFFFFF" stroke="none" />
            <path d="M514.058 340.785C506.678 340.785 500.678 334.785 500.678 327.405C500.678 320.025 506.678 314.025 514.058 314.025C521.438 314.025 527.438 320.025 527.438 327.405C527.438 334.785 521.438 340.785 514.058 340.785L514.058 340.785ZM514.058 320.455C510.228 320.455 507.108 323.575 507.108 327.405C507.108 331.235 510.228 334.355 514.058 334.355C517.888 334.355 521.008 331.235 521.008 327.405C521.018 323.575 517.898 320.455 514.058 320.455L514.058 320.455Z" id="Shape" fill="#FFFFFF" fill-rule="evenodd" stroke="none" />
            <path d="M151.408 442.825C144.028 442.825 138.028 436.825 138.028 429.445C138.028 422.065 144.028 416.065 151.408 416.065C158.788 416.065 164.788 422.065 164.788 429.445C164.788 436.825 158.788 442.825 151.408 442.825L151.408 442.825ZM151.408 422.495C147.578 422.495 144.458 425.615 144.458 429.445C144.458 433.275 147.578 436.395 151.408 436.395C155.238 436.395 158.358 433.275 158.358 429.445C158.368 425.615 155.248 422.495 151.408 422.495L151.408 422.495Z" id="Shape" fill="#FFFFFF" fill-rule="evenodd" stroke="none" />
          </g>
          <g id="Group" transform="translate(8.092041 117.935)">
            <path d="M318.726 370.74L93.9361 413.49C76.0461 416.89 58.7761 405.15 55.3761 387.25L0.586052 99.21C-2.81395 81.32 8.92606 64.05 26.826 60.65L251.616 17.9C269.506 14.5 286.776 26.24 290.176 44.14L344.966 332.19C348.366 350.07 336.616 367.34 318.726 370.74L318.726 370.74Z" id="Shape" fill="url(#gradient_2)" stroke="none" />
            <path d="M323.626 368.87L548.416 411.62C566.306 415.02 583.576 403.28 586.976 385.38L641.766 97.33C645.166 79.44 633.426 62.17 615.526 58.77L390.736 16.02C372.846 12.62 355.576 24.36 352.176 42.26L297.386 330.31C293.986 348.21 305.736 365.47 323.626 368.87L323.626 368.87Z" id="Shape" fill="url(#gradient_3)" stroke="none" />
            <path d="M459.146 431.71L191.036 431.71C172.816 431.71 158.056 416.94 158.056 398.73L158.056 32.98C158.056 14.76 172.826 0 191.036 0L459.146 0C477.366 0 492.126 14.77 492.126 32.98L492.126 398.72C492.126 416.94 477.366 431.71 459.146 431.71L459.146 431.71Z" id="Shape" fill="url(#gradient_4)" stroke="none" />
            <path d="M333.056 98.27L217.006 98.27C208.876 98.27 202.286 91.68 202.286 83.55L202.286 81.09C202.286 72.96 208.876 66.37 217.006 66.37L333.056 66.37C341.186 66.37 347.776 72.96 347.776 81.09L347.776 83.55C347.776 91.68 341.186 98.27 333.056 98.27L333.056 98.27Z" id="Shape" fill="#FFFFFF" stroke="none" />
            <path d="M436.116 360.55L217.006 360.55C208.876 360.55 202.286 353.96 202.286 345.83L202.286 343.37C202.286 335.24 208.876 328.65 217.006 328.65L436.116 328.65C444.246 328.65 450.836 335.24 450.836 343.37L450.836 345.83C450.846 353.96 444.246 360.55 436.116 360.55L436.116 360.55Z" id="Shape" fill="#FFFFFF" stroke="none" />
          </g>
        </g>
      </g>
      <g id="SOP" fill="#FFFFFF" transform="translate(254 328)">
        <path d="M69.9545 60.8182Q69.0341 53.0455 62.4886 48.75Q55.9432 44.4545 46.4318 44.4545Q36 44.4545 29.6591 49.3892Q23.3182 54.3239 23.3182 61.8409Q23.3182 67.4659 26.7699 70.9176Q30.2216 74.3693 34.9517 76.2869Q39.6818 78.2045 43.5682 79.2273L54.2045 82.0909Q58.2955 83.1648 63.3324 85.0568Q68.3693 86.9489 72.9972 90.196Q77.625 93.4432 80.6421 98.5057Q83.6591 103.568 83.6591 110.932Q83.6591 119.42 79.2358 126.273Q74.8125 133.125 66.3494 137.165Q57.8864 141.205 45.8182 141.205Q28.9432 141.205 19.0227 133.227Q9.10227 125.25 8.18182 112.364L21.2727 112.364Q21.7841 118.295 25.2869 122.156Q28.7898 126.017 34.1847 127.884Q39.5796 129.75 45.8182 129.75Q53.0795 129.75 58.858 127.372Q64.6364 124.994 68.0114 120.724Q71.3864 116.455 71.3864 110.727Q71.3864 105.511 68.4716 102.239Q65.5568 98.9659 60.8011 96.9205Q56.0455 94.875 50.5227 93.3409L37.6364 89.6591Q25.3636 86.1307 18.2045 79.5852Q11.0455 73.0398 11.0455 62.4545Q11.0455 53.6591 15.8267 47.0881Q20.608 40.517 28.7131 36.8608Q36.8182 33.2045 46.8409 33.2045Q56.9659 33.2045 64.8409 36.8096Q72.7159 40.4148 77.3438 46.6534Q81.9716 52.892 82.2273 60.8182L69.9545 60.8182ZM192.886 87Q192.886 103.568 186.903 115.636Q180.92 127.705 170.489 134.25Q160.057 140.795 146.659 140.795Q133.261 140.795 122.83 134.25Q112.398 127.705 106.415 115.636Q100.432 103.568 100.432 87Q100.432 70.4318 106.415 58.3636Q112.398 46.2955 122.83 39.75Q133.261 33.2045 146.659 33.2045Q160.057 33.2045 170.489 39.75Q180.92 46.2955 186.903 58.3636Q192.886 70.4318 192.886 87ZM249.545 34.6364L214.159 34.6364L214.159 139.364L226.841 139.364L226.841 101.114L249.75 101.114Q261.972 101.114 269.795 96.6392Q277.619 92.1648 281.378 84.5966Q285.136 77.0284 285.136 67.7727Q285.136 58.517 281.352 51Q277.568 43.483 269.719 39.0596Q261.869 34.6364 249.545 34.6364ZM180.614 87Q180.614 73.3977 176.088 64.0398Q171.563 54.6818 163.866 49.875Q156.17 45.0682 146.659 45.0682Q137.148 45.0682 129.452 49.875Q121.756 54.6818 117.23 64.0398Q112.705 73.3977 112.705 87Q112.705 100.602 117.23 109.96Q121.756 119.318 129.452 124.125Q137.148 128.932 146.659 128.932Q156.17 128.932 163.866 124.125Q171.563 119.318 176.088 109.96Q180.614 100.602 180.614 87ZM249.341 89.8636L226.841 89.8636L226.841 45.8864L249.136 45.8864Q261.92 45.8864 267.29 52.0994Q272.659 58.3125 272.659 67.7727Q272.659 77.1818 267.315 83.5227Q261.972 89.8636 249.341 89.8636Z" />
      </g>
    </g>
  </g>
</svg>