<?xml version="1.0" standalone="no"?><!DOCTYPE svg PUBLIC "-//W3C//DTD SVG 1.1//EN" "http://www.w3.org/Graphics/SVG/1.1/DTD/svg11.dtd"><svg t="1627527941630" class="icon" viewBox="0 0 1024 1024" version="1.1" xmlns="http://www.w3.org/2000/svg" p-id="5278" xmlns:xlink="http://www.w3.org/1999/xlink" width="200" height="200"><defs><style type="text/css">@font-face { font-family: feedback-iconfont; src: url("//at.alicdn.com/t/font_1031158_1uhr8ri0pk5.eot?#iefix") format("embedded-opentype"), url("//at.alicdn.com/t/font_1031158_1uhr8ri0pk5.woff2") format("woff2"), url("//at.alicdn.com/t/font_1031158_1uhr8ri0pk5.woff") format("woff"), url("//at.alicdn.com/t/font_1031158_1uhr8ri0pk5.ttf") format("truetype"), url("//at.alicdn.com/t/font_1031158_1uhr8ri0pk5.svg#iconfont") format("svg"); }
</style></defs><path d="M924.750769 444.258462h-11.815384c-7.089231 0-12.603077 4.726154-12.603077 11.815384s4.726154 12.603077 11.815384 12.603077h12.603077V480.492308c0 6.301538 5.513846 11.815385 11.815385 11.815384s11.815385-5.513846 11.815384-11.815384v-11.815385h11.815385c7.089231 0 11.815385-6.301538 11.815385-12.603077s-5.513846-11.027692-11.815385-11.815384H949.169231v-11.815385c0-6.301538-5.513846-11.815385-11.815385-11.815385s-11.815385 5.513846-11.815384 11.815385v11.815385zM51.2 237.095385c0 7.876923 3.938462 14.966154 11.027692 18.904615 7.089231 3.938462 14.966154 3.938462 22.055385 0 6.301538-3.938462 11.027692-11.027692 11.027692-18.904615s-3.938462-14.966154-11.027692-18.904616c-7.089231-3.938462-14.966154-3.938462-22.055385 0-7.089231 3.938462-11.027692 11.027692-11.027692 18.904616z" fill="#B6BDCC" p-id="5279"></path><path d="M794.781538 786.116923L679.778462 508.061538H212.676923L98.461538 786.116923h-3.150769v233.944615h702.621539V786.116923h-3.15077z" fill="#E7ECF7" p-id="5280"></path><path d="M797.932308 1020.061538H95.310769V786.116923H98.461538l115.003077-278.055385h467.101539l115.003077 278.055385h2.363077l0.787692 6.301539-0.787692 227.643076z m-690.018462-12.603076H783.753846V795.569231L671.113846 521.452308h-448.984615L107.913846 795.569231v211.889231z" fill="#B6BDCC" p-id="5281"></path><path d="M215.04 696.32L107.913846 1002.732308l14.178462 4.726154L229.218462 701.046154l-14.178462-4.726154z m462.375385 0l107.126153 306.412308-14.178461 4.726154L664.024615 701.046154l13.39077-4.726154z" fill="#B6BDCC" p-id="5282"></path><path d="M373.366154 786.116923H95.310769v233.944615h702.621539V786.116923H519.876923c0 25.993846-13.390769 51.2-36.233846 64.590769a73.255385 73.255385 0 0 1-74.043077 0c-22.843077-13.390769-37.021538-38.596923-36.233846-64.590769z" fill="#FAFCFF" p-id="5283"></path><path d="M797.932308 1020.061538H95.310769V786.116923h278.055385l0.787692 6.301539c3.150769 37.809231 35.446154 66.953846 73.255385 66.953846 37.809231 0 70.104615-29.144615 73.255384-66.953846l0.787693-6.301539H799.507692l-1.575384 233.944615z m-690.018462-12.603076H783.753846v-207.95077H531.692308c-6.301538 41.747692-42.535385 73.255385-85.07077 73.255385s-78.769231-31.507692-85.070769-73.255385H107.913846v207.95077zM738.855385 244.184615l102.4 44.11077 58.28923-219.766154L738.855385 244.184615z m161.476923-175.655384L622.276923 200.861538 709.710769 244.184615l190.621539-175.655384zM738.855385 259.150769v73.255385l44.110769-44.110769-44.110769-29.144616z" fill="#B6BDCC" p-id="5284"></path><path d="M211.889231 508.061538h468.676923v204.8H211.889231v-204.8z" fill="#D9E0ED" p-id="5285"></path><path d="M680.566154 712.861538H211.889231v-204.8h468.676923v204.8z m-455.286154-13.390769h441.895385V521.452308H225.28v178.018461z" fill="#B6BDCC" p-id="5286"></path><path d="M340.283077 653.784615c8.664615-4.726154 17.329231-8.664615 25.993846-13.390769 3.150769-2.363077 4.726154-6.301538 2.363077-9.452308-1.575385-3.150769-6.301538-4.726154-9.452308-3.150769-8.664615 4.726154-17.329231 9.452308-25.993846 13.390769-3.938462 1.575385-4.726154 6.301538-3.150769 10.24 2.363077 2.363077 6.301538 3.938462 10.24 2.363077z m51.2-28.356923c8.664615-4.726154 16.541538-10.24 25.206154-15.753846 3.150769-2.363077 3.938462-7.089231 2.363077-10.24-2.363077-3.150769-7.089231-3.938462-10.24-2.363077-7.876923 5.513846-16.541538 10.24-24.418462 15.753846-3.150769 1.575385-4.726154 6.301538-2.363077 9.452308 1.575385 3.938462 6.301538 4.726154 9.452308 3.150769z m49.624615-33.870769c7.876923-6.301538 15.753846-12.603077 22.843077-18.904615 3.150769-2.363077 3.150769-7.089231 0.787693-10.24-2.363077-3.150769-7.089231-3.150769-10.24-0.787693-7.089231 6.301538-14.178462 12.603077-22.055385 18.116923-3.150769 2.363077-3.150769 7.089231-0.787692 10.24 1.575385 3.150769 6.301538 3.938462 9.452307 1.575385z m44.11077-39.384615c7.089231-7.089231 13.390769-14.966154 18.904615-23.63077 2.363077-3.150769 1.575385-7.876923-1.575385-10.24-3.150769-2.363077-7.876923-1.575385-10.24 1.575385-5.513846 7.876923-11.815385 14.966154-18.116923 22.055385-2.363077 3.150769-2.363077 7.876923 0.787693 10.24 3.150769 3.150769 7.876923 2.363077 10.24 0z m35.446153-50.412308c-1.575385 3.938462-6.301538 5.513846-9.452307 3.938462-3.938462-1.575385-5.513846-6.301538-3.938462-9.452308 3.938462-8.664615 7.089231-17.329231 9.452308-25.993846 0.787692-3.938462 5.513846-6.301538 8.664615-4.726154 3.938462 0.787692 6.301538 4.726154 5.513846 8.664615-2.363077 8.664615-5.513846 18.116923-10.24 27.569231z m14.178462-59.864615c-0.787692-11.027692-3.938462-22.055385-11.027692-31.507693-2.363077-3.150769-7.089231-3.938462-10.24-1.575384s-3.938462 7.089231-1.575385 10.24c4.726154 7.089231 7.876923 14.966154 7.876923 23.630769 0.787692 3.938462 3.938462 7.089231 7.876923 6.301538 3.938462 0 7.089231-3.150769 7.089231-7.08923z m-36.233846-52.775385c-9.452308-4.726154-19.692308-7.876923-29.932308-9.452308-2.363077-0.787692-5.513846 0.787692-7.089231 2.363077-1.575385 2.363077-2.363077 4.726154-0.787692 7.089231 0.787692 2.363077 3.150769 3.938462 5.513846 4.726154 8.664615 1.575385 17.329231 3.938462 25.206154 7.876923 2.363077 1.575385 5.513846 1.575385 7.876923 0 2.363077-1.575385 3.938462-3.938462 3.150769-6.301539 0-3.150769-1.575385-5.513846-3.938461-6.301538z m-62.227693-10.24c-12.603077 2.363077-22.843077 7.089231-30.72 14.178462-3.150769 3.150769-3.150769 7.089231 0 10.24 0.787692 0.787692 2.363077 1.575385 3.15077 2.363076 2.363077 0.787692 5.513846 0 7.08923-1.575384 4.726154-4.726154 13.390769-8.664615 22.843077-10.24 2.363077-0.787692 4.726154-2.363077 5.513847-4.726154 1.575385-3.938462-0.787692-7.876923-4.726154-9.452308-0.787692-0.787692-2.363077-0.787692-3.15077-0.787692z m-39.384615 48.836923c2.363077 8.664615 7.876923 18.116923 16.541539 27.569231 2.363077 3.150769 7.089231 3.150769 10.24 0.787692 3.150769-2.363077 3.150769-7.089231 0.787692-10.24-7.089231-7.876923-11.815385-15.753846-13.390769-22.055384-0.787692-2.363077-2.363077-4.726154-5.513847-4.726154-2.363077-0.787692-5.513846 0-7.08923 2.363077-1.575385 1.575385-2.363077 3.938462-1.575385 6.301538z m40.96 49.624615c8.664615 6.301538 18.116923 10.24 28.356923 13.39077 3.938462 0.787692 7.876923-1.575385 8.664616-5.513846 0.787692-3.938462-0.787692-7.876923-4.726154-8.664616-8.664615-2.363077-17.329231-6.301538-24.418462-11.815384-3.150769-2.363077-7.876923-0.787692-10.24 2.363076-1.575385 3.150769-0.787692 7.876923 2.363077 10.24z m59.864615 16.541539c-3.938462 0-7.876923-3.150769-7.876923-7.089231s3.150769-7.876923 7.089231-7.876923c9.452308-0.787692 18.116923-2.363077 26.781539-4.726154 2.363077-0.787692 5.513846 0 7.08923 1.575385 3.150769 2.363077 3.150769 7.089231 0.787693 10.24-0.787692 0.787692-2.363077 1.575385-3.15077 2.363077-9.452308 3.150769-20.48 5.513846-30.72 5.513846z m60.652308-18.116923c8.664615-4.726154 17.329231-10.24 25.993846-15.753846 3.150769-2.363077 3.938462-7.089231 1.575385-10.24s-6.301538-3.938462-10.24-1.575385c-7.876923 5.513846-15.753846 11.027692-23.630769 14.966154-2.363077 0.787692-3.938462 3.938462-3.938462 6.301538 0 2.363077 1.575385 5.513846 3.150769 6.301539 2.363077 1.575385 4.726154 1.575385 7.089231 0z m48.049231-33.870769c7.876923-6.301538 14.966154-13.390769 21.267692-20.48 2.363077-3.150769 2.363077-7.089231 0-10.24-3.150769-3.150769-7.089231-3.150769-10.24 0-6.301538 7.089231-13.390769 13.390769-20.48 19.692307-3.150769 2.363077-3.150769 7.089231 0 10.24 2.363077 3.150769 6.301538 3.150769 9.452308 0.787693z m42.535385-42.535385c6.301538-7.876923 12.603077-14.966154 18.904615-22.843077 2.363077-3.150769 1.575385-7.876923-1.575385-10.24-3.150769-2.363077-7.876923-1.575385-10.24 1.575385-5.513846 7.876923-11.815385 14.966154-18.116923 22.843077-2.363077 3.150769-1.575385 7.876923 0.787693 10.24 3.150769 1.575385 7.089231 0.787692 10.24-1.575385z m36.233846-48.836923c5.513846-7.876923 11.027692-16.541538 15.753846-25.206154 2.363077-3.150769 0.787692-7.876923-2.363077-10.24-3.150769-2.363077-7.876923-0.787692-10.24 2.363077-4.726154 7.876923-10.24 16.541538-15.753846 24.418462-1.575385 2.363077-1.575385 4.726154-0.787693 7.08923 0.787692 2.363077 3.938462 3.938462 6.301539 3.938462 3.150769 1.575385 5.513846 0 7.089231-2.363077z m29.932307-49.624615c3.150769-5.513846 5.513846-11.027692 8.664616-16.541539 1.575385-3.938462 0-7.876923-3.938462-9.452308-3.150769-1.575385-7.089231 0-9.452307 3.15077-2.363077 5.513846-5.513846 11.027692-7.876924 15.753846-1.575385 3.938462-0.787692 7.876923 3.15077 10.24 3.150769 1.575385 7.876923 0 9.452307-3.150769zM446.621538 75.618462c-19.692308 0-36.233846-15.753846-36.233846-36.233847 0-19.692308 15.753846-36.233846 36.233846-36.233846 19.692308 0 36.233846 15.753846 36.233847 36.233846-0.787692 19.692308-16.541538 36.233846-36.233847 36.233847z m0-59.076924c-12.603077 0-22.843077 10.24-22.843076 22.843077 0 12.603077 10.24 22.843077 22.843076 22.843077 12.603077 0 22.843077-10.24 22.843077-22.843077 0-12.603077-10.24-22.843077-22.843077-22.843077z" fill="#B6BDCC" p-id="5287"></path></svg>